<?xml version="1.0" standalone="no"?>
<!DOCTYPE svg PUBLIC "-//W3C//DTD SVG 20010904//EN"
 "http://www.w3.org/TR/2001/REC-SVG-20010904/DTD/svg10.dtd">
<svg version="1.0" xmlns="http://www.w3.org/2000/svg"
 width="432.000000pt" height="432.000000pt" viewBox="0 0 432.000000 432.000000"
 preserveAspectRatio="xMidYMid meet">
<metadata>
Created by potrace 1.11, written by Peter Selinger 2001-2013
</metadata>
<g transform="translate(0.000000,432.000000) scale(0.100000,-0.100000)"
fill="#000000" stroke="none">
<path d="M1940 4309 c-36 -5 -83 -10 -105 -13 -66 -6 -252 -54 -377 -96 -216
-73 -459 -204 -628 -339 -24 -20 -56 -45 -70 -56 -14 -11 -74 -70 -135 -130
-261 -261 -446 -580 -548 -945 -17 -62 -46 -197 -53 -250 -2 -19 -8 -64 -13
-100 -17 -130 -4 -472 25 -612 2 -13 7 -36 10 -53 23 -134 106 -367 189 -534
117 -235 332 -505 540 -678 323 -268 715 -435 1145 -487 111 -14 387 -15 475
-2 171 25 179 26 295 54 211 51 448 155 649 286 413 268 739 694 877 1146 9
30 22 73 30 96 13 41 47 217 59 309 20 144 10 494 -18 635 -33 162 -38 181
-93 340 -153 442 -451 821 -856 1088 -112 73 -290 165 -393 202 -33 12 -67 24
-75 27 -8 4 -17 7 -20 8 -3 1 -36 11 -75 23 -79 24 -172 46 -280 67 -69 13
-131 17 -300 19 -104 2 -219 -1 -255 -5z"/>
</g>
</svg>
